<?xml version="1.0" encoding="utf-8" standalone="no"?>
<!DOCTYPE svg PUBLIC "-//W3C//DTD SVG 1.1//EN"
  "http://www.w3.org/Graphics/SVG/1.1/DTD/svg11.dtd">
<svg xmlns:xlink="http://www.w3.org/1999/xlink" width="194.977812pt" height="198.323437pt" viewBox="0 0 194.977812 198.323437" xmlns="http://www.w3.org/2000/svg" version="1.1">
 <metadata>
  <rdf:RDF xmlns:dc="http://purl.org/dc/elements/1.1/" xmlns:cc="http://creativecommons.org/ns#" xmlns:rdf="http://www.w3.org/1999/02/22-rdf-syntax-ns#">
   <cc:Work>
    <dc:type rdf:resource="http://purl.org/dc/dcmitype/StillImage"/>
    <dc:date>2025-10-06T17:46:41.821661</dc:date>
    <dc:format>image/svg+xml</dc:format>
    <dc:creator>
     <cc:Agent>
      <dc:title>Matplotlib v3.10.5, https://matplotlib.org/</dc:title>
     </cc:Agent>
    </dc:creator>
   </cc:Work>
  </rdf:RDF>
 </metadata>
 <defs>
  <style type="text/css">*{stroke-linejoin: round; stroke-linecap: butt}</style>
 </defs>
 <g id="figure_1">
  <g id="patch_1">
   <path d="M 0 198.323437 
L 194.977812 198.323437 
L 194.977812 0 
L 0 0 
z
" style="fill: #ffffff"/>
  </g>
  <g id="axes_1">
   <g id="patch_2">
    <path d="M 71.759063 152.5 
L 129.969063 152.5 
L 129.969063 36.8475 
L 71.759063 36.8475 
z
" style="fill: #ffffff"/>
   </g>
   <g id="matplotlib.axis_1">
    <g id="xtick_1">
     <g id="line2d_1">
      <defs>
       <path id="m50ee8b3feb" d="M 0 0 
L 0 3.5 
" style="stroke: #000000; stroke-width: 0.8"/>
      </defs>
      <g>
       <use xlink:href="#m50ee8b3feb" x="71.759063" y="152.5" style="stroke: #000000; stroke-width: 0.8"/>
      </g>
     </g>
     <g id="text_1">
      <!-- 0 -->
      <g transform="translate(67.866406 169.520937) scale(0.14 -0.14)">
       <defs>
        <path id="ArialMT-30" d="M 266 2259 
Q 266 3072 433 3567 
Q 600 4063 929 4331 
Q 1259 4600 1759 4600 
Q 2128 4600 2406 4451 
Q 2684 4303 2865 4023 
Q 3047 3744 3150 3342 
Q 3253 2941 3253 2259 
Q 3253 1453 3087 958 
Q 2922 463 2592 192 
Q 2263 -78 1759 -78 
Q 1097 -78 719 397 
Q 266 969 266 2259 
z
M 844 2259 
Q 844 1131 1108 757 
Q 1372 384 1759 384 
Q 2147 384 2411 759 
Q 2675 1134 2675 2259 
Q 2675 3391 2411 3762 
Q 2147 4134 1753 4134 
Q 1366 4134 1134 3806 
Q 844 3388 844 2259 
z
" transform="scale(0.015625)"/>
       </defs>
       <use xlink:href="#ArialMT-30"/>
      </g>
     </g>
    </g>
    <g id="xtick_2">
     <g id="line2d_2">
      <g>
       <use xlink:href="#m50ee8b3feb" x="129.969063" y="152.5" style="stroke: #000000; stroke-width: 0.8"/>
      </g>
     </g>
     <g id="text_2">
      <!-- 50 -->
      <g transform="translate(122.18375 169.520937) scale(0.14 -0.14)">
       <defs>
        <path id="ArialMT-35" d="M 266 1200 
L 856 1250 
Q 922 819 1161 601 
Q 1400 384 1738 384 
Q 2144 384 2425 690 
Q 2706 997 2706 1503 
Q 2706 1984 2436 2262 
Q 2166 2541 1728 2541 
Q 1456 2541 1237 2417 
Q 1019 2294 894 2097 
L 366 2166 
L 809 4519 
L 3088 4519 
L 3088 3981 
L 1259 3981 
L 1013 2750 
Q 1425 3038 1878 3038 
Q 2478 3038 2890 2622 
Q 3303 2206 3303 1553 
Q 3303 931 2941 478 
Q 2500 -78 1738 -78 
Q 1113 -78 717 272 
Q 322 622 266 1200 
z
" transform="scale(0.015625)"/>
       </defs>
       <use xlink:href="#ArialMT-35"/>
       <use xlink:href="#ArialMT-30" transform="translate(55.615234 0)"/>
      </g>
     </g>
    </g>
    <g id="text_3">
     <!-- Frequency [Hz] -->
     <g transform="translate(46.625313 187.755937) scale(0.16 -0.16)">
      <defs>
       <path id="ArialMT-46" d="M 525 0 
L 525 4581 
L 3616 4581 
L 3616 4041 
L 1131 4041 
L 1131 2622 
L 3281 2622 
L 3281 2081 
L 1131 2081 
L 1131 0 
L 525 0 
z
" transform="scale(0.015625)"/>
       <path id="ArialMT-72" d="M 416 0 
L 416 3319 
L 922 3319 
L 922 2816 
Q 1116 3169 1280 3281 
Q 1444 3394 1641 3394 
Q 1925 3394 2219 3213 
L 2025 2691 
Q 1819 2813 1613 2813 
Q 1428 2813 1281 2702 
Q 1134 2591 1072 2394 
Q 978 2094 978 1738 
L 978 0 
L 416 0 
z
" transform="scale(0.015625)"/>
       <path id="ArialMT-65" d="M 2694 1069 
L 3275 997 
Q 3138 488 2766 206 
Q 2394 -75 1816 -75 
Q 1088 -75 661 373 
Q 234 822 234 1631 
Q 234 2469 665 2931 
Q 1097 3394 1784 3394 
Q 2450 3394 2872 2941 
Q 3294 2488 3294 1666 
Q 3294 1616 3291 1516 
L 816 1516 
Q 847 969 1125 678 
Q 1403 388 1819 388 
Q 2128 388 2347 550 
Q 2566 713 2694 1069 
z
M 847 1978 
L 2700 1978 
Q 2663 2397 2488 2606 
Q 2219 2931 1791 2931 
Q 1403 2931 1139 2672 
Q 875 2413 847 1978 
z
" transform="scale(0.015625)"/>
       <path id="ArialMT-71" d="M 2538 -1272 
L 2538 353 
Q 2406 169 2170 47 
Q 1934 -75 1669 -75 
Q 1078 -75 651 397 
Q 225 869 225 1691 
Q 225 2191 398 2587 
Q 572 2984 901 3189 
Q 1231 3394 1625 3394 
Q 2241 3394 2594 2875 
L 2594 3319 
L 3100 3319 
L 3100 -1272 
L 2538 -1272 
z
M 803 1669 
Q 803 1028 1072 708 
Q 1341 388 1716 388 
Q 2075 388 2334 692 
Q 2594 997 2594 1619 
Q 2594 2281 2320 2615 
Q 2047 2950 1678 2950 
Q 1313 2950 1058 2639 
Q 803 2328 803 1669 
z
" transform="scale(0.015625)"/>
       <path id="ArialMT-75" d="M 2597 0 
L 2597 488 
Q 2209 -75 1544 -75 
Q 1250 -75 995 37 
Q 741 150 617 320 
Q 494 491 444 738 
Q 409 903 409 1263 
L 409 3319 
L 972 3319 
L 972 1478 
Q 972 1038 1006 884 
Q 1059 663 1231 536 
Q 1403 409 1656 409 
Q 1909 409 2131 539 
Q 2353 669 2445 892 
Q 2538 1116 2538 1541 
L 2538 3319 
L 3100 3319 
L 3100 0 
L 2597 0 
z
" transform="scale(0.015625)"/>
       <path id="ArialMT-6e" d="M 422 0 
L 422 3319 
L 928 3319 
L 928 2847 
Q 1294 3394 1984 3394 
Q 2284 3394 2536 3286 
Q 2788 3178 2913 3003 
Q 3038 2828 3088 2588 
Q 3119 2431 3119 2041 
L 3119 0 
L 2556 0 
L 2556 2019 
Q 2556 2363 2490 2533 
Q 2425 2703 2258 2804 
Q 2091 2906 1866 2906 
Q 1506 2906 1245 2678 
Q 984 2450 984 1813 
L 984 0 
L 422 0 
z
" transform="scale(0.015625)"/>
       <path id="ArialMT-63" d="M 2588 1216 
L 3141 1144 
Q 3050 572 2676 248 
Q 2303 -75 1759 -75 
Q 1078 -75 664 370 
Q 250 816 250 1647 
Q 250 2184 428 2587 
Q 606 2991 970 3192 
Q 1334 3394 1763 3394 
Q 2303 3394 2647 3120 
Q 2991 2847 3088 2344 
L 2541 2259 
Q 2463 2594 2264 2762 
Q 2066 2931 1784 2931 
Q 1359 2931 1093 2626 
Q 828 2322 828 1663 
Q 828 994 1084 691 
Q 1341 388 1753 388 
Q 2084 388 2306 591 
Q 2528 794 2588 1216 
z
" transform="scale(0.015625)"/>
       <path id="ArialMT-79" d="M 397 -1278 
L 334 -750 
Q 519 -800 656 -800 
Q 844 -800 956 -737 
Q 1069 -675 1141 -563 
Q 1194 -478 1313 -144 
Q 1328 -97 1363 -6 
L 103 3319 
L 709 3319 
L 1400 1397 
Q 1534 1031 1641 628 
Q 1738 1016 1872 1384 
L 2581 3319 
L 3144 3319 
L 1881 -56 
Q 1678 -603 1566 -809 
Q 1416 -1088 1222 -1217 
Q 1028 -1347 759 -1347 
Q 597 -1347 397 -1278 
z
" transform="scale(0.015625)"/>
       <path id="ArialMT-20" transform="scale(0.015625)"/>
       <path id="ArialMT-5b" d="M 434 -1272 
L 434 4581 
L 1675 4581 
L 1675 4116 
L 997 4116 
L 997 -806 
L 1675 -806 
L 1675 -1272 
L 434 -1272 
z
" transform="scale(0.015625)"/>
       <path id="ArialMT-48" d="M 513 0 
L 513 4581 
L 1119 4581 
L 1119 2700 
L 3500 2700 
L 3500 4581 
L 4106 4581 
L 4106 0 
L 3500 0 
L 3500 2159 
L 1119 2159 
L 1119 0 
L 513 0 
z
" transform="scale(0.015625)"/>
       <path id="ArialMT-7a" d="M 125 0 
L 125 456 
L 2238 2881 
Q 1878 2863 1603 2863 
L 250 2863 
L 250 3319 
L 2963 3319 
L 2963 2947 
L 1166 841 
L 819 456 
Q 1197 484 1528 484 
L 3063 484 
L 3063 0 
L 125 0 
z
" transform="scale(0.015625)"/>
       <path id="ArialMT-5d" d="M 1363 -1272 
L 122 -1272 
L 122 -806 
L 800 -806 
L 800 4116 
L 122 4116 
L 122 4581 
L 1363 4581 
L 1363 -1272 
z
" transform="scale(0.015625)"/>
      </defs>
      <use xlink:href="#ArialMT-46"/>
      <use xlink:href="#ArialMT-72" transform="translate(61.083984 0)"/>
      <use xlink:href="#ArialMT-65" transform="translate(94.384766 0)"/>
      <use xlink:href="#ArialMT-71" transform="translate(150 0)"/>
      <use xlink:href="#ArialMT-75" transform="translate(205.615234 0)"/>
      <use xlink:href="#ArialMT-65" transform="translate(261.230469 0)"/>
      <use xlink:href="#ArialMT-6e" transform="translate(316.845703 0)"/>
      <use xlink:href="#ArialMT-63" transform="translate(372.460938 0)"/>
      <use xlink:href="#ArialMT-79" transform="translate(422.460938 0)"/>
      <use xlink:href="#ArialMT-20" transform="translate(472.460938 0)"/>
      <use xlink:href="#ArialMT-5b" transform="translate(500.244141 0)"/>
      <use xlink:href="#ArialMT-48" transform="translate(528.027344 0)"/>
      <use xlink:href="#ArialMT-7a" transform="translate(600.244141 0)"/>
      <use xlink:href="#ArialMT-5d" transform="translate(650.244141 0)"/>
     </g>
    </g>
   </g>
   <g id="matplotlib.axis_2">
    <g id="ytick_1">
     <g id="line2d_3">
      <defs>
       <path id="me98126050b" d="M 0 0 
L -3.5 0 
" style="stroke: #000000; stroke-width: 0.8"/>
      </defs>
      <g>
       <use xlink:href="#me98126050b" x="71.759063" y="147.246054" style="stroke: #000000; stroke-width: 0.8"/>
      </g>
     </g>
     <g id="text_4">
      <!-- 0 -->
      <g transform="translate(56.97375 152.256523) scale(0.14 -0.14)">
       <use xlink:href="#ArialMT-30"/>
      </g>
     </g>
    </g>
    <g id="ytick_2">
     <g id="line2d_4">
      <g>
       <use xlink:href="#me98126050b" x="71.759063" y="110.62223" style="stroke: #000000; stroke-width: 0.8"/>
      </g>
     </g>
     <g id="text_5">
      <!-- 10000 -->
      <g transform="translate(25.8325 115.632699) scale(0.14 -0.14)">
       <defs>
        <path id="ArialMT-31" d="M 2384 0 
L 1822 0 
L 1822 3584 
Q 1619 3391 1289 3197 
Q 959 3003 697 2906 
L 697 3450 
Q 1169 3672 1522 3987 
Q 1875 4303 2022 4600 
L 2384 4600 
L 2384 0 
z
" transform="scale(0.015625)"/>
       </defs>
       <use xlink:href="#ArialMT-31"/>
       <use xlink:href="#ArialMT-30" transform="translate(55.615234 0)"/>
       <use xlink:href="#ArialMT-30" transform="translate(111.230469 0)"/>
       <use xlink:href="#ArialMT-30" transform="translate(166.845703 0)"/>
       <use xlink:href="#ArialMT-30" transform="translate(222.460938 0)"/>
      </g>
     </g>
    </g>
    <g id="ytick_3">
     <g id="line2d_5">
      <g>
       <use xlink:href="#me98126050b" x="71.759063" y="73.998406" style="stroke: #000000; stroke-width: 0.8"/>
      </g>
     </g>
     <g id="text_6">
      <!-- 20000 -->
      <g transform="translate(25.8325 79.008875) scale(0.14 -0.14)">
       <defs>
        <path id="ArialMT-32" d="M 3222 541 
L 3222 0 
L 194 0 
Q 188 203 259 391 
Q 375 700 629 1000 
Q 884 1300 1366 1694 
Q 2113 2306 2375 2664 
Q 2638 3022 2638 3341 
Q 2638 3675 2398 3904 
Q 2159 4134 1775 4134 
Q 1369 4134 1125 3890 
Q 881 3647 878 3216 
L 300 3275 
Q 359 3922 746 4261 
Q 1134 4600 1788 4600 
Q 2447 4600 2831 4234 
Q 3216 3869 3216 3328 
Q 3216 3053 3103 2787 
Q 2991 2522 2730 2228 
Q 2469 1934 1863 1422 
Q 1356 997 1212 845 
Q 1069 694 975 541 
L 3222 541 
z
" transform="scale(0.015625)"/>
       </defs>
       <use xlink:href="#ArialMT-32"/>
       <use xlink:href="#ArialMT-30" transform="translate(55.615234 0)"/>
       <use xlink:href="#ArialMT-30" transform="translate(111.230469 0)"/>
       <use xlink:href="#ArialMT-30" transform="translate(166.845703 0)"/>
       <use xlink:href="#ArialMT-30" transform="translate(222.460938 0)"/>
      </g>
     </g>
    </g>
    <g id="ytick_4">
     <g id="line2d_6">
      <g>
       <use xlink:href="#me98126050b" x="71.759063" y="37.374583" style="stroke: #000000; stroke-width: 0.8"/>
      </g>
     </g>
     <g id="text_7">
      <!-- 30000 -->
      <g transform="translate(25.8325 42.385051) scale(0.14 -0.14)">
       <defs>
        <path id="ArialMT-33" d="M 269 1209 
L 831 1284 
Q 928 806 1161 595 
Q 1394 384 1728 384 
Q 2125 384 2398 659 
Q 2672 934 2672 1341 
Q 2672 1728 2419 1979 
Q 2166 2231 1775 2231 
Q 1616 2231 1378 2169 
L 1441 2663 
Q 1497 2656 1531 2656 
Q 1891 2656 2178 2843 
Q 2466 3031 2466 3422 
Q 2466 3731 2256 3934 
Q 2047 4138 1716 4138 
Q 1388 4138 1169 3931 
Q 950 3725 888 3313 
L 325 3413 
Q 428 3978 793 4289 
Q 1159 4600 1703 4600 
Q 2078 4600 2393 4439 
Q 2709 4278 2876 4000 
Q 3044 3722 3044 3409 
Q 3044 3113 2884 2869 
Q 2725 2625 2413 2481 
Q 2819 2388 3044 2092 
Q 3269 1797 3269 1353 
Q 3269 753 2831 336 
Q 2394 -81 1725 -81 
Q 1122 -81 723 278 
Q 325 638 269 1209 
z
" transform="scale(0.015625)"/>
       </defs>
       <use xlink:href="#ArialMT-33"/>
       <use xlink:href="#ArialMT-30" transform="translate(55.615234 0)"/>
       <use xlink:href="#ArialMT-30" transform="translate(111.230469 0)"/>
       <use xlink:href="#ArialMT-30" transform="translate(166.845703 0)"/>
       <use xlink:href="#ArialMT-30" transform="translate(222.460938 0)"/>
      </g>
     </g>
    </g>
    <g id="text_8">
     <!-- Power -->
     <g transform="translate(18.6525 117.34875) rotate(-90) scale(0.16 -0.16)">
      <defs>
       <path id="ArialMT-50" d="M 494 0 
L 494 4581 
L 2222 4581 
Q 2678 4581 2919 4538 
Q 3256 4481 3484 4323 
Q 3713 4166 3852 3881 
Q 3991 3597 3991 3256 
Q 3991 2672 3619 2267 
Q 3247 1863 2275 1863 
L 1100 1863 
L 1100 0 
L 494 0 
z
M 1100 2403 
L 2284 2403 
Q 2872 2403 3119 2622 
Q 3366 2841 3366 3238 
Q 3366 3525 3220 3729 
Q 3075 3934 2838 4000 
Q 2684 4041 2272 4041 
L 1100 4041 
L 1100 2403 
z
" transform="scale(0.015625)"/>
       <path id="ArialMT-6f" d="M 213 1659 
Q 213 2581 725 3025 
Q 1153 3394 1769 3394 
Q 2453 3394 2887 2945 
Q 3322 2497 3322 1706 
Q 3322 1066 3130 698 
Q 2938 331 2570 128 
Q 2203 -75 1769 -75 
Q 1072 -75 642 372 
Q 213 819 213 1659 
z
M 791 1659 
Q 791 1022 1069 705 
Q 1347 388 1769 388 
Q 2188 388 2466 706 
Q 2744 1025 2744 1678 
Q 2744 2294 2464 2611 
Q 2184 2928 1769 2928 
Q 1347 2928 1069 2612 
Q 791 2297 791 1659 
z
" transform="scale(0.015625)"/>
       <path id="ArialMT-77" d="M 1034 0 
L 19 3319 
L 600 3319 
L 1128 1403 
L 1325 691 
Q 1338 744 1497 1375 
L 2025 3319 
L 2603 3319 
L 3100 1394 
L 3266 759 
L 3456 1400 
L 4025 3319 
L 4572 3319 
L 3534 0 
L 2950 0 
L 2422 1988 
L 2294 2553 
L 1622 0 
L 1034 0 
z
" transform="scale(0.015625)"/>
      </defs>
      <use xlink:href="#ArialMT-50"/>
      <use xlink:href="#ArialMT-6f" transform="translate(66.699219 0)"/>
      <use xlink:href="#ArialMT-77" transform="translate(122.314453 0)"/>
      <use xlink:href="#ArialMT-65" transform="translate(194.53125 0)"/>
      <use xlink:href="#ArialMT-72" transform="translate(250.146484 0)"/>
     </g>
    </g>
   </g>
   <g id="line2d_7">
    <path d="M 71.759063 147.242974 
L 71.933693 147.197391 
L 72.282953 147.22151 
L 74.262093 147.208341 
L 74.320303 147.001068 
L 74.378513 147.201131 
L 74.902403 147.206926 
L 74.960613 147.10545 
L 75.018823 147.210967 
L 75.077033 147.138953 
L 75.135243 147.226579 
L 75.309873 147.214654 
L 75.426293 146.654577 
L 75.484503 143.398707 
L 75.659133 147.235008 
L 75.717343 147.221158 
L 75.775553 147.066538 
L 75.833763 147.207186 
L 76.415863 147.229831 
L 76.474073 147.036721 
L 76.532283 147.142757 
L 76.648703 147.200011 
L 76.706913 147.146315 
L 76.765123 147.235248 
L 78.220373 147.229359 
L 78.686053 147.224902 
L 79.559203 147.236711 
L 81.654763 147.23195 
L 81.829393 147.218888 
L 82.760753 147.222213 
L 86.427983 147.16068 
L 86.602613 147.215301 
L 86.951873 147.20816 
L 87.010083 146.929011 
L 87.068293 147.207298 
L 87.126503 146.918116 
L 87.184713 147.051827 
L 87.417553 147.166342 
L 87.475763 146.955033 
L 87.533973 147.166646 
L 87.592183 146.968216 
L 87.650393 147.081943 
L 87.708603 146.907995 
L 87.766813 145.668088 
L 87.825023 133.81625 
L 87.941443 146.735422 
L 87.999653 147.143202 
L 88.057863 147.131942 
L 88.116073 147.120797 
L 88.174283 146.877125 
L 88.232493 147.224904 
L 88.290703 147.15607 
L 88.407123 146.993923 
L 88.465333 147.076275 
L 88.872803 147.18699 
L 88.989223 147.098071 
L 89.280273 147.181308 
L 89.454903 147.092512 
L 89.571323 147.14902 
L 89.687743 146.931222 
L 89.745953 147.184817 
L 89.804163 146.950116 
L 89.862373 146.93136 
L 89.978793 147.10421 
L 90.095213 146.595274 
L 90.153423 146.674496 
L 90.211633 147.012995 
L 90.269843 146.885814 
L 90.328053 146.819999 
L 90.386263 146.417478 
L 90.502683 147.199778 
L 90.560893 147.089044 
L 90.619103 147.05166 
L 90.735523 145.553669 
L 90.793733 146.170339 
L 90.851943 146.156501 
L 90.910153 141.432854 
L 91.026573 92.221493 
L 91.142993 140.119452 
L 91.201203 138.693358 
L 91.259413 72.98188 
L 91.375833 146.632455 
L 91.550463 146.990182 
L 91.608673 146.992571 
L 91.666883 147.108657 
L 91.725093 146.701589 
L 91.899723 147.147211 
L 91.957933 146.901618 
L 92.016143 147.090259 
L 92.248983 147.111706 
L 92.307193 146.881721 
L 92.365403 147.18007 
L 92.423613 147.070152 
L 92.481823 147.14294 
L 92.656453 146.728889 
L 92.714663 146.912942 
L 92.889293 147.202096 
L 92.947503 146.904604 
L 93.005713 147.04564 
L 93.063923 146.993356 
L 93.180343 147.174456 
L 93.238553 147.102938 
L 93.354973 147.194234 
L 93.413183 147.187604 
L 93.471393 147.047211 
L 93.529603 147.127595 
L 93.587813 147.217624 
L 93.646023 147.142441 
L 93.704233 147.064128 
L 93.762443 147.208202 
L 93.820653 146.981764 
L 93.878863 147.091825 
L 93.995283 147.122729 
L 94.053493 147.184451 
L 94.111703 147.039465 
L 94.169913 147.145106 
L 94.228123 147.059259 
L 94.286333 147.099846 
L 94.344543 147.153086 
L 94.402753 147.039113 
L 94.460963 127.055108 
L 94.577383 147.167961 
L 94.693803 147.174792 
L 94.810223 147.166913 
L 95.101273 147.167662 
L 95.334113 147.199672 
L 95.392323 147.088223 
L 95.450533 147.149203 
L 95.683373 147.160474 
L 96.207263 147.197679 
L 96.265473 147.116253 
L 96.323683 147.208128 
L 96.498313 147.192487 
L 96.556523 147.051766 
L 96.614733 147.182628 
L 96.847573 147.201491 
L 97.080413 147.19686 
L 97.313253 146.998447 
L 97.371463 147.124766 
L 97.487883 147.202862 
L 97.546093 146.895146 
L 97.604303 146.995074 
L 97.662513 147.185633 
L 97.720723 146.944237 
L 97.778933 147.166516 
L 97.953563 147.133485 
L 98.011773 147.164037 
L 98.069983 146.517888 
L 98.128193 147.213568 
L 98.186403 147.118331 
L 98.244613 147.060221 
L 98.361033 147.185415 
L 98.593873 147.056805 
L 98.652083 146.744845 
L 98.768503 147.124767 
L 98.826713 146.861389 
L 98.884923 147.045066 
L 98.943133 147.154232 
L 99.001343 146.99718 
L 99.059553 53.415621 
L 99.117763 147.175445 
L 99.175973 147.157386 
L 99.350603 146.563002 
L 99.408813 147.194176 
L 99.467023 147.007897 
L 99.525233 146.890241 
L 99.583443 147.160996 
L 99.641653 146.99676 
L 99.758073 147.225078 
L 99.816283 146.713989 
L 99.932703 147.185782 
L 99.990913 146.646521 
L 100.049123 147.144517 
L 100.107333 147.001968 
L 100.165543 146.804844 
L 100.223753 146.924753 
L 100.514803 147.145753 
L 100.689433 146.901623 
L 100.747643 146.946029 
L 100.805853 146.730803 
L 100.864063 147.104333 
L 100.922273 147.019533 
L 100.980483 146.985698 
L 101.038693 146.563614 
L 101.096903 141.225622 
L 101.155113 109.604329 
L 101.271533 146.908641 
L 101.329743 146.323425 
L 101.387953 147.169866 
L 101.446163 147.139591 
L 101.620793 147.173761 
L 101.679003 147.02241 
L 101.737213 147.137496 
L 102.144683 147.118026 
L 102.202893 147.02059 
L 102.319313 147.178701 
L 102.493943 147.217483 
L 102.784993 147.1555 
L 102.843203 147.053794 
L 103.017833 147.209996 
L 103.192463 147.104277 
L 103.308883 147.187274 
L 103.367093 147.042685 
L 103.425303 147.135401 
L 104.007403 147.185762 
L 104.065613 146.974458 
L 104.123823 147.137403 
L 104.298453 147.171915 
L 104.473083 147.121996 
L 104.589503 147.177897 
L 104.764133 146.799757 
L 104.938763 147.198291 
L 105.113393 147.100938 
L 105.171603 147.089584 
L 105.229813 146.65636 
L 105.288023 147.208094 
L 105.346233 146.823309 
L 105.637283 147.220517 
L 105.695493 147.072392 
L 105.753703 147.192971 
L 105.870123 147.152823 
L 105.986543 147.108359 
L 106.044753 147.215186 
L 106.102963 147.156456 
L 106.161173 146.918285 
L 106.219383 147.171883 
L 106.277593 146.972915 
L 106.335803 42.104432 
L 106.452223 146.908194 
L 106.510433 147.113347 
L 106.568643 147.061391 
L 106.917903 147.115764 
L 106.976113 146.105616 
L 107.034323 147.002703 
L 107.092533 147.072081 
L 107.150743 146.589583 
L 107.208953 147.17079 
L 107.383583 146.3629 
L 107.500003 147.122963 
L 107.558213 146.923618 
L 107.616423 147.175617 
L 107.674633 147.000922 
L 107.732843 146.543759 
L 107.791053 146.835503 
L 107.849263 146.815376 
L 107.907473 146.585032 
L 107.965683 146.905781 
L 108.198523 142.341974 
L 108.256733 57.112531 
L 108.431363 147.010931 
L 108.489573 146.820378 
L 108.547783 146.058256 
L 108.605993 143.489217 
L 108.722413 94.58131 
L 108.838833 143.811319 
L 109.129883 146.721929 
L 109.188093 146.604576 
L 109.246303 146.902308 
L 109.304513 146.704515 
L 109.362723 146.393002 
L 109.537353 146.808366 
L 109.595562 146.715994 
L 109.711983 147.177377 
L 109.770193 146.370667 
L 109.828403 52.456697 
L 109.944823 147.077662 
L 110.003033 147.139577 
L 110.119453 146.712857 
L 110.177663 146.90519 
L 110.235873 146.53472 
L 110.352293 147.130983 
L 110.585133 146.698336 
L 110.643343 145.739617 
L 110.701553 86.560919 
L 110.817973 146.784378 
L 110.876183 146.439319 
L 110.934393 146.610798 
L 111.050813 147.128553 
L 111.109023 147.075792 
L 111.167233 146.784264 
L 111.283653 147.110318 
L 111.341863 147.084298 
L 111.516492 146.916653 
L 111.691123 147.195612 
L 111.749333 146.93458 
L 111.807543 147.030533 
L 111.865753 147.204026 
L 111.982173 146.914573 
L 112.040383 147.136079 
L 112.098593 147.000242 
L 112.156803 147.064843 
L 112.215013 146.951956 
L 112.389643 147.176603 
L 112.564273 147.141088 
L 112.680693 147.176624 
L 112.738903 146.997222 
L 112.797113 147.159961 
L 112.855323 147.036858 
L 112.971743 147.204539 
L 113.088163 147.16021 
L 113.146373 146.978358 
L 113.204583 147.136772 
L 113.262793 147.20005 
L 113.321003 147.142647 
L 113.437423 147.154423 
L 113.495633 147.054068 
L 113.553843 147.171594 
L 113.786683 147.224003 
L 114.135942 147.069267 
L 114.310573 147.196672 
L 114.368783 147.052204 
L 114.426993 147.207993 
L 114.485203 147.117197 
L 114.892673 147.169577 
L 115.125513 147.21289 
L 115.300143 147.059735 
L 115.358353 147.150275 
L 115.416563 147.088171 
L 115.474773 146.855802 
L 115.532983 136.26954 
L 115.649403 147.119015 
L 115.824033 147.172507 
L 115.882243 146.967729 
L 115.940453 147.166667 
L 116.231503 147.197928 
L 116.580763 147.195356 
L 116.755393 147.178149 
L 116.871813 147.177765 
L 116.988233 147.215351 
L 117.162863 147.18746 
L 117.221073 147.127337 
L 117.279283 147.210773 
L 117.512123 147.222511 
L 117.628543 147.121691 
L 117.686753 147.219397 
L 122.227133 147.206883 
L 122.285343 147.040116 
L 122.343553 147.209993 
L 122.518183 147.197081 
L 122.576393 146.802428 
L 122.634603 147.154068 
L 122.692813 147.010949 
L 122.809233 147.191818 
L 122.867443 147.134103 
L 122.983863 146.655845 
L 123.042073 146.930805 
L 123.158493 144.96518 
L 123.216703 117.853704 
L 123.274912 140.830297 
L 123.449543 146.951377 
L 123.507753 147.052134 
L 123.565963 146.698521 
L 123.682383 147.186318 
L 123.798803 147.095082 
L 123.857013 147.127974 
L 123.973433 146.760247 
L 124.089853 147.204302 
L 124.148063 147.003559 
L 124.206273 147.174325 
L 125.195843 147.1126 
L 125.254053 146.990154 
L 125.370473 147.184726 
L 125.486893 147.158041 
L 125.777943 147.186379 
L 125.836153 146.97118 
L 125.894362 147.208767 
L 125.952573 146.84694 
L 126.010783 147.026261 
L 126.127203 147.123952 
L 126.360043 145.967832 
L 126.418253 146.178495 
L 126.476463 143.34605 
L 126.534673 115.721546 
L 126.592883 124.976084 
L 126.709303 146.514013 
L 126.767513 146.432207 
L 126.942143 147.15129 
L 127.000353 146.562312 
L 127.058563 146.867996 
L 127.174983 147.024398 
L 127.291403 146.694213 
L 127.466033 147.176858 
L 127.524243 147.015604 
L 127.582453 147.06666 
L 127.640663 147.034538 
L 127.698873 147.203252 
L 127.873503 145.952117 
L 127.931713 145.191168 
L 127.989923 69.824853 
L 128.106343 147.02485 
L 128.164553 147.115938 
L 128.222763 147.05096 
L 128.339182 147.035488 
L 128.397393 147.10483 
L 128.513813 146.799586 
L 128.572023 147.190226 
L 128.630233 146.945165 
L 128.746653 147.200944 
L 128.921283 146.880257 
L 128.979493 147.186419 
L 129.037703 146.960357 
L 129.095912 147.191445 
L 129.154123 147.128181 
L 129.212333 147.07884 
L 129.386963 147.229887 
L 129.445173 146.947965 
L 129.503383 147.007442 
L 129.619803 147.230718 
L 129.678013 147.134793 
L 129.969063 147.195208 
L 129.969063 147.195208 
" clip-path="url(#p2611d7e5b1)" style="fill: none; stroke: #000080; stroke-width: 1.5; stroke-linecap: square"/>
   </g>
   <g id="patch_3">
    <path d="M 71.759063 152.5 
L 71.759063 36.8475 
" style="fill: none; stroke: #000000; stroke-width: 0.8; stroke-linejoin: miter; stroke-linecap: square"/>
   </g>
   <g id="patch_4">
    <path d="M 129.969063 152.5 
L 129.969063 36.8475 
" style="fill: none; stroke: #000000; stroke-width: 0.8; stroke-linejoin: miter; stroke-linecap: square"/>
   </g>
   <g id="patch_5">
    <path d="M 71.759063 152.5 
L 129.969063 152.5 
" style="fill: none; stroke: #000000; stroke-width: 0.8; stroke-linejoin: miter; stroke-linecap: square"/>
   </g>
   <g id="patch_6">
    <path d="M 71.759063 36.8475 
L 129.969063 36.8475 
" style="fill: none; stroke: #000000; stroke-width: 0.8; stroke-linejoin: miter; stroke-linecap: square"/>
   </g>
   <g id="text_9">
    <!-- Power Spectrum (iter=1) -->
    <g transform="translate(13.950313 18.8475) scale(0.16 -0.16)">
     <defs>
      <path id="ArialMT-53" d="M 288 1472 
L 859 1522 
Q 900 1178 1048 958 
Q 1197 738 1509 602 
Q 1822 466 2213 466 
Q 2559 466 2825 569 
Q 3091 672 3220 851 
Q 3350 1031 3350 1244 
Q 3350 1459 3225 1620 
Q 3100 1781 2813 1891 
Q 2628 1963 1997 2114 
Q 1366 2266 1113 2400 
Q 784 2572 623 2826 
Q 463 3081 463 3397 
Q 463 3744 659 4045 
Q 856 4347 1234 4503 
Q 1613 4659 2075 4659 
Q 2584 4659 2973 4495 
Q 3363 4331 3572 4012 
Q 3781 3694 3797 3291 
L 3216 3247 
Q 3169 3681 2898 3903 
Q 2628 4125 2100 4125 
Q 1550 4125 1298 3923 
Q 1047 3722 1047 3438 
Q 1047 3191 1225 3031 
Q 1400 2872 2139 2705 
Q 2878 2538 3153 2413 
Q 3553 2228 3743 1945 
Q 3934 1663 3934 1294 
Q 3934 928 3725 604 
Q 3516 281 3123 101 
Q 2731 -78 2241 -78 
Q 1619 -78 1198 103 
Q 778 284 539 648 
Q 300 1013 288 1472 
z
" transform="scale(0.015625)"/>
      <path id="ArialMT-70" d="M 422 -1272 
L 422 3319 
L 934 3319 
L 934 2888 
Q 1116 3141 1344 3267 
Q 1572 3394 1897 3394 
Q 2322 3394 2647 3175 
Q 2972 2956 3137 2557 
Q 3303 2159 3303 1684 
Q 3303 1175 3120 767 
Q 2938 359 2589 142 
Q 2241 -75 1856 -75 
Q 1575 -75 1351 44 
Q 1128 163 984 344 
L 984 -1272 
L 422 -1272 
z
M 931 1641 
Q 931 1000 1190 694 
Q 1450 388 1819 388 
Q 2194 388 2461 705 
Q 2728 1022 2728 1688 
Q 2728 2322 2467 2637 
Q 2206 2953 1844 2953 
Q 1484 2953 1207 2617 
Q 931 2281 931 1641 
z
" transform="scale(0.015625)"/>
      <path id="ArialMT-74" d="M 1650 503 
L 1731 6 
Q 1494 -44 1306 -44 
Q 1000 -44 831 53 
Q 663 150 594 308 
Q 525 466 525 972 
L 525 2881 
L 113 2881 
L 113 3319 
L 525 3319 
L 525 4141 
L 1084 4478 
L 1084 3319 
L 1650 3319 
L 1650 2881 
L 1084 2881 
L 1084 941 
Q 1084 700 1114 631 
Q 1144 563 1211 522 
Q 1278 481 1403 481 
Q 1497 481 1650 503 
z
" transform="scale(0.015625)"/>
      <path id="ArialMT-6d" d="M 422 0 
L 422 3319 
L 925 3319 
L 925 2853 
Q 1081 3097 1340 3245 
Q 1600 3394 1931 3394 
Q 2300 3394 2536 3241 
Q 2772 3088 2869 2813 
Q 3263 3394 3894 3394 
Q 4388 3394 4653 3120 
Q 4919 2847 4919 2278 
L 4919 0 
L 4359 0 
L 4359 2091 
Q 4359 2428 4304 2576 
Q 4250 2725 4106 2815 
Q 3963 2906 3769 2906 
Q 3419 2906 3187 2673 
Q 2956 2441 2956 1928 
L 2956 0 
L 2394 0 
L 2394 2156 
Q 2394 2531 2256 2718 
Q 2119 2906 1806 2906 
Q 1569 2906 1367 2781 
Q 1166 2656 1075 2415 
Q 984 2175 984 1722 
L 984 0 
L 422 0 
z
" transform="scale(0.015625)"/>
      <path id="ArialMT-28" d="M 1497 -1347 
Q 1031 -759 709 28 
Q 388 816 388 1659 
Q 388 2403 628 3084 
Q 909 3875 1497 4659 
L 1900 4659 
Q 1522 4009 1400 3731 
Q 1209 3300 1100 2831 
Q 966 2247 966 1656 
Q 966 153 1900 -1347 
L 1497 -1347 
z
" transform="scale(0.015625)"/>
      <path id="ArialMT-69" d="M 425 3934 
L 425 4581 
L 988 4581 
L 988 3934 
L 425 3934 
z
M 425 0 
L 425 3319 
L 988 3319 
L 988 0 
L 425 0 
z
" transform="scale(0.015625)"/>
      <path id="ArialMT-3d" d="M 3381 2694 
L 356 2694 
L 356 3219 
L 3381 3219 
L 3381 2694 
z
M 3381 1303 
L 356 1303 
L 356 1828 
L 3381 1828 
L 3381 1303 
z
" transform="scale(0.015625)"/>
      <path id="ArialMT-29" d="M 791 -1347 
L 388 -1347 
Q 1322 153 1322 1656 
Q 1322 2244 1188 2822 
Q 1081 3291 891 3722 
Q 769 4003 388 4659 
L 791 4659 
Q 1378 3875 1659 3084 
Q 1900 2403 1900 1659 
Q 1900 816 1576 28 
Q 1253 -759 791 -1347 
z
" transform="scale(0.015625)"/>
     </defs>
     <use xlink:href="#ArialMT-50"/>
     <use xlink:href="#ArialMT-6f" transform="translate(66.699219 0)"/>
     <use xlink:href="#ArialMT-77" transform="translate(122.314453 0)"/>
     <use xlink:href="#ArialMT-65" transform="translate(194.53125 0)"/>
     <use xlink:href="#ArialMT-72" transform="translate(250.146484 0)"/>
     <use xlink:href="#ArialMT-20" transform="translate(283.447266 0)"/>
     <use xlink:href="#ArialMT-53" transform="translate(311.230469 0)"/>
     <use xlink:href="#ArialMT-70" transform="translate(377.929688 0)"/>
     <use xlink:href="#ArialMT-65" transform="translate(433.544922 0)"/>
     <use xlink:href="#ArialMT-63" transform="translate(489.160156 0)"/>
     <use xlink:href="#ArialMT-74" transform="translate(539.160156 0)"/>
     <use xlink:href="#ArialMT-72" transform="translate(566.943359 0)"/>
     <use xlink:href="#ArialMT-75" transform="translate(600.244141 0)"/>
     <use xlink:href="#ArialMT-6d" transform="translate(655.859375 0)"/>
     <use xlink:href="#ArialMT-20" transform="translate(739.160156 0)"/>
     <use xlink:href="#ArialMT-28" transform="translate(766.943359 0)"/>
     <use xlink:href="#ArialMT-69" transform="translate(800.244141 0)"/>
     <use xlink:href="#ArialMT-74" transform="translate(822.460938 0)"/>
     <use xlink:href="#ArialMT-65" transform="translate(850.244141 0)"/>
     <use xlink:href="#ArialMT-72" transform="translate(905.859375 0)"/>
     <use xlink:href="#ArialMT-3d" transform="translate(939.160156 0)"/>
     <use xlink:href="#ArialMT-31" transform="translate(997.558594 0)"/>
     <use xlink:href="#ArialMT-29" transform="translate(1053.173828 0)"/>
    </g>
   </g>
  </g>
 </g>
 <defs>
  <clipPath id="p2611d7e5b1">
   <rect x="71.759063" y="36.8475" width="58.21" height="115.6525"/>
  </clipPath>
 </defs>
</svg>
